{
	"asset":{
		"generator":"Khronos glTF Blender I/O v4.2.60",
		"version":"2.0"
	},
	"scene":0,
	"scenes":[
		{
			"name":"Scene",
			"nodes":[
				0
			]
		}
	],
	"nodes":[
		{
			"mesh":0,
			"name":"Cube",
			"rotation":[
				0,
				0,
				-0.3826834559440613,
				0.9238795638084412
			]
		}
	],
	"materials":[
		{
			"doubleSided":true,
			"name":"Material",
			"pbrMetallicRoughness":{
				"baseColorFactor":[
					0.8000937700271606,
					0.022742969915270805,
					0.010698536410927773,
					1
				],
				"roughnessFactor":0.37155961990356445
			}
		}
	],
	"meshes":[
		{
			"name":"Cube",
			"primitives":[
				{
					"attributes":{
						"POSITION":0,
						"NORMAL":1,
						"TEXCOORD_0":2
					},
					"indices":3,
					"material":0
				}
			]
		}
	],
	"accessors":[
		{
			"bufferView":0,
			"componentType":5126,
			"count":1638,
			"max":[
				1,
				2.0628714561462402,
				1
			],
			"min":[
				-2.0527613162994385,
				-1.0034137964248657,
				-1.0121480226516724
			],
			"type":"VEC3"
		},
		{
			"bufferView":1,
			"componentType":5126,
			"count":1638,
			"type":"VEC3"
		},
		{
			"bufferView":2,
			"componentType":5126,
			"count":1638,
			"type":"VEC2"
		},
		{
			"bufferView":3,
			"componentType":5123,
			"count":9588,
			"type":"SCALAR"
		}
	],
	"bufferViews":[
		{
			"buffer":0,
			"byteLength":19656,
			"byteOffset":0,
			"target":34962
		},
		{
			"buffer":0,
			"byteLength":19656,
			"byteOffset":19656,
			"target":34962
		},
		{
			"buffer":0,
			"byteLength":13104,
			"byteOffset":39312,
			"target":34962
		},
		{
			"buffer":0,
			"byteLength":19176,
			"byteOffset":52416,
			"target":34963
		}
	],
	"buffers":[
		{
			"byteLength":71592,
			"uri":"Heart.bin"
		}
	]
}
