{
	"asset":{
		"generator":"Khronos glTF Blender I/O v4.1.63",
		"version":"2.0"
	},
	"scene":0,
	"scenes":[
		{
			"name":"Scene",
			"nodes":[
				0
			]
		}
	],
	"nodes":[
		{
			"mesh":0,
			"name":"Plate"
		}
	],
	"materials":[
		{
			"doubleSided":true,
			"name":"Plate",
			"pbrMetallicRoughness":{
				"baseColorFactor":[
					0.6921333074569702,
					0.6009035110473633,
					0.4674486219882965,
					1
				],
				"metallicFactor":0,
				"roughnessFactor":0.16699999570846558
			}
		}
	],
	"meshes":[
		{
			"name":"Circle.001",
			"primitives":[
				{
					"attributes":{
						"POSITION":0,
						"NORMAL":1,
						"TEXCOORD_0":2
					},
					"indices":3,
					"material":0
				}
			]
		}
	],
	"accessors":[
		{
			"bufferView":0,
			"componentType":5126,
			"count":7100,
			"max":[
				0.18223367631435394,
				0.018947090953588486,
				0.18223367631435394
			],
			"min":[
				-0.18223367631435394,
				-0.003997218329459429,
				-0.18223369121551514
			],
			"type":"VEC3"
		},
		{
			"bufferView":1,
			"componentType":5126,
			"count":7100,
			"type":"VEC3"
		},
		{
			"bufferView":2,
			"componentType":5126,
			"count":7100,
			"type":"VEC2"
		},
		{
			"bufferView":3,
			"componentType":5123,
			"count":42588,
			"type":"SCALAR"
		}
	],
	"bufferViews":[
		{
			"buffer":0,
			"byteLength":85200,
			"byteOffset":0,
			"target":34962
		},
		{
			"buffer":0,
			"byteLength":85200,
			"byteOffset":85200,
			"target":34962
		},
		{
			"buffer":0,
			"byteLength":56800,
			"byteOffset":170400,
			"target":34962
		},
		{
			"buffer":0,
			"byteLength":85176,
			"byteOffset":227200,
			"target":34963
		}
	],
	"buffers":[
		{
			"byteLength":312376,
			"uri":"Plate.bin"
		}
	]
}
