{
	"asset":{
		"generator":"Khronos glTF Blender I/O v4.2.60",
		"version":"2.0"
	},
	"scene":0,
	"scenes":[
		{
			"name":"Scene",
			"nodes":[
				0,
				1,
				2
			]
		}
	],
	"nodes":[
		{
			"mesh":0,
			"name":"Rail.001",
			"translation":[
				2.423703908920288,
				0.15002262592315674,
				0.001255027949810028
			]
		},
		{
			"mesh":1,
			"name":"Rail.002",
			"translation":[
				2.423703908920288,
				0.15002262592315674,
				0.001255027949810028
			]
		},
		{
			"mesh":2,
			"name":"Rail.003",
			"translation":[
				2.423703908920288,
				-0.08360432088375092,
				0.001255027949810028
			]
		}
	],
	"materials":[
		{
			"doubleSided":true,
			"name":"Material.001",
			"pbrMetallicRoughness":{
				"baseColorFactor":[
					0.16178742051124573,
					0.03569984436035156,
					0.013639656826853752,
					1
				],
				"metallicFactor":0
			}
		}
	],
	"meshes":[
		{
			"name":"Cylinder.016",
			"primitives":[
				{
					"attributes":{
						"POSITION":0,
						"NORMAL":1,
						"TEXCOORD_0":2
					},
					"indices":3,
					"material":0
				}
			]
		},
		{
			"name":"Cylinder.017",
			"primitives":[
				{
					"attributes":{
						"POSITION":4,
						"NORMAL":5,
						"TEXCOORD_0":6,
						"TANGENT":7
					},
					"indices":8,
					"material":0
				}
			]
		},
		{
			"name":"Rail.003",
			"primitives":[
				{
					"attributes":{
						"POSITION":9,
						"NORMAL":10,
						"TEXCOORD_0":11,
						"TANGENT":12
					},
					"indices":13,
					"material":0
				}
			]
		}
	],
	"accessors":[
		{
			"bufferView":0,
			"componentType":5126,
			"count":230386,
			"max":[
				1.461141586303711,
				3.014585494995117,
				3.9847640991210938
			],
			"min":[
				-2.576805353164673,
				-2.2709369659423828e-05,
				-0.061006516218185425
			],
			"type":"VEC3"
		},
		{
			"bufferView":1,
			"componentType":5126,
			"count":230386,
			"type":"VEC3"
		},
		{
			"bufferView":2,
			"componentType":5126,
			"count":230386,
			"type":"VEC2"
		},
		{
			"bufferView":3,
			"componentType":5125,
			"count":1317888,
			"type":"SCALAR"
		},
		{
			"bufferView":4,
			"componentType":5126,
			"count":312,
			"max":[
				1.5696585178375244,
				1.7997053861618042,
				4.090597152709961
			],
			"min":[
				-2.768218994140625,
				-0.15002262592315674,
				-0.2742246985435486
			],
			"type":"VEC3"
		},
		{
			"bufferView":5,
			"componentType":5126,
			"count":312,
			"type":"VEC3"
		},
		{
			"bufferView":6,
			"componentType":5126,
			"count":312,
			"type":"VEC2"
		},
		{
			"bufferView":7,
			"componentType":5126,
			"count":312,
			"type":"VEC4"
		},
		{
			"bufferView":8,
			"componentType":5123,
			"count":468,
			"type":"SCALAR"
		},
		{
			"bufferView":9,
			"componentType":5126,
			"count":182,
			"max":[
				0.15136122703552246,
				3.0671470165252686,
				2.623889684677124
			],
			"min":[
				-2.5286405086517334,
				1.161980152130127,
				-0.12083543837070465
			],
			"type":"VEC3"
		},
		{
			"bufferView":10,
			"componentType":5126,
			"count":182,
			"type":"VEC3"
		},
		{
			"bufferView":11,
			"componentType":5126,
			"count":182,
			"type":"VEC2"
		},
		{
			"bufferView":12,
			"componentType":5126,
			"count":182,
			"type":"VEC4"
		},
		{
			"bufferView":13,
			"componentType":5123,
			"count":936,
			"type":"SCALAR"
		}
	],
	"bufferViews":[
		{
			"buffer":0,
			"byteLength":2764632,
			"byteOffset":0,
			"target":34962
		},
		{
			"buffer":0,
			"byteLength":2764632,
			"byteOffset":2764632,
			"target":34962
		},
		{
			"buffer":0,
			"byteLength":1843088,
			"byteOffset":5529264,
			"target":34962
		},
		{
			"buffer":0,
			"byteLength":5271552,
			"byteOffset":7372352,
			"target":34963
		},
		{
			"buffer":0,
			"byteLength":3744,
			"byteOffset":12643904,
			"target":34962
		},
		{
			"buffer":0,
			"byteLength":3744,
			"byteOffset":12647648,
			"target":34962
		},
		{
			"buffer":0,
			"byteLength":2496,
			"byteOffset":12651392,
			"target":34962
		},
		{
			"buffer":0,
			"byteLength":4992,
			"byteOffset":12653888,
			"target":34962
		},
		{
			"buffer":0,
			"byteLength":936,
			"byteOffset":12658880,
			"target":34963
		},
		{
			"buffer":0,
			"byteLength":2184,
			"byteOffset":12659816,
			"target":34962
		},
		{
			"buffer":0,
			"byteLength":2184,
			"byteOffset":12662000,
			"target":34962
		},
		{
			"buffer":0,
			"byteLength":1456,
			"byteOffset":12664184,
			"target":34962
		},
		{
			"buffer":0,
			"byteLength":2912,
			"byteOffset":12665640,
			"target":34962
		},
		{
			"buffer":0,
			"byteLength":1872,
			"byteOffset":12668552,
			"target":34963
		}
	],
	"buffers":[
		{
			"byteLength":12670424,
			"uri":"StairsRotated.bin"
		}
	]
}
