{
	"asset":{
		"generator":"Khronos glTF Blender I/O v4.1.63",
		"version":"2.0"
	},
	"scene":0,
	"scenes":[
		{
			"name":"Scene",
			"nodes":[
				1
			]
		}
	],
	"nodes":[
		{
			"mesh":0,
			"name":"Icing"
		},
		{
			"children":[
				0
			],
			"mesh":1,
			"name":"Donut",
			"rotation":[
				-0.008586658164858818,
				-0.00014195650874171406,
				0.02390260249376297,
				0.9996774196624756
			],
			"translation":[
				0,
				0.09389181435108185,
				0
			]
		}
	],
	"materials":[
		{
			"doubleSided":true,
			"name":"Material",
			"pbrMetallicRoughness":{
				"baseColorFactor":[
					0.15491874516010284,
					0.06786186993122101,
					0.029249971732497215,
					1
				],
				"metallicFactor":0,
				"roughnessFactor":0.36690646409988403
			}
		},
		{
			"doubleSided":true,
			"name":"Material.001",
			"pbrMetallicRoughness":{
				"baseColorTexture":{
					"index":0
				},
				"metallicFactor":0,
				"roughnessFactor":0.5
			}
		}
	],
	"meshes":[
		{
			"name":"Torus.004",
			"primitives":[
				{
					"attributes":{
						"POSITION":0,
						"NORMAL":1,
						"TEXCOORD_0":2,
						"TANGENT":3
					},
					"indices":4,
					"material":0
				}
			]
		},
		{
			"name":"Mesh",
			"primitives":[
				{
					"attributes":{
						"POSITION":5,
						"NORMAL":6,
						"TEXCOORD_0":7,
						"TANGENT":8
					},
					"indices":9,
					"material":1
				}
			]
		}
	],
	"textures":[
		{
			"sampler":0,
			"source":0
		}
	],
	"images":[
		{
			"mimeType":"image/png",
			"name":"DonutTexturePaint",
			"uri":"DonutTexturePaint.png"
		}
	],
	"accessors":[
		{
			"bufferView":0,
			"componentType":5126,
			"count":28321,
			"max":[
				0.06350460648536682,
				0.030929235741496086,
				0.06261913478374481
			],
			"min":[
				-0.06550850719213486,
				-0.020812902599573135,
				-0.0643271803855896
			],
			"type":"VEC3"
		},
		{
			"bufferView":1,
			"componentType":5126,
			"count":28321,
			"type":"VEC3"
		},
		{
			"bufferView":2,
			"componentType":5126,
			"count":28321,
			"type":"VEC2"
		},
		{
			"bufferView":3,
			"componentType":5126,
			"count":28321,
			"type":"VEC4"
		},
		{
			"bufferView":4,
			"componentType":5123,
			"count":163584,
			"type":"SCALAR"
		},
		{
			"bufferView":5,
			"componentType":5126,
			"count":1754,
			"max":[
				0.06102801486849785,
				0.02897447533905506,
				0.06083076447248459
			],
			"min":[
				-0.0632312074303627,
				-0.023897351697087288,
				-0.061898160725831985
			],
			"type":"VEC3"
		},
		{
			"bufferView":6,
			"componentType":5126,
			"count":1754,
			"type":"VEC3"
		},
		{
			"bufferView":7,
			"componentType":5126,
			"count":1754,
			"type":"VEC2"
		},
		{
			"bufferView":8,
			"componentType":5126,
			"count":1754,
			"type":"VEC4"
		},
		{
			"bufferView":9,
			"componentType":5123,
			"count":9216,
			"type":"SCALAR"
		}
	],
	"bufferViews":[
		{
			"buffer":0,
			"byteLength":339852,
			"byteOffset":0,
			"target":34962
		},
		{
			"buffer":0,
			"byteLength":339852,
			"byteOffset":339852,
			"target":34962
		},
		{
			"buffer":0,
			"byteLength":226568,
			"byteOffset":679704,
			"target":34962
		},
		{
			"buffer":0,
			"byteLength":453136,
			"byteOffset":906272,
			"target":34962
		},
		{
			"buffer":0,
			"byteLength":327168,
			"byteOffset":1359408,
			"target":34963
		},
		{
			"buffer":0,
			"byteLength":21048,
			"byteOffset":1686576,
			"target":34962
		},
		{
			"buffer":0,
			"byteLength":21048,
			"byteOffset":1707624,
			"target":34962
		},
		{
			"buffer":0,
			"byteLength":14032,
			"byteOffset":1728672,
			"target":34962
		},
		{
			"buffer":0,
			"byteLength":28064,
			"byteOffset":1742704,
			"target":34962
		},
		{
			"buffer":0,
			"byteLength":18432,
			"byteOffset":1770768,
			"target":34963
		}
	],
	"samplers":[
		{
			"magFilter":9729,
			"minFilter":9987
		}
	],
	"buffers":[
		{
			"byteLength":1789200,
			"uri":"Donut.bin"
		}
	]
}
